<?xml version="1.0" standalone="no"?>
<!DOCTYPE svg PUBLIC "-//W3C//DTD SVG 20010904//EN"
 "http://www.w3.org/TR/2001/REC-SVG-20010904/DTD/svg10.dtd">
<svg version="1.0" xmlns="http://www.w3.org/2000/svg"
 width="872.000000pt" height="872.000000pt" viewBox="0 0 872.000000 872.000000"
 preserveAspectRatio="xMidYMid meet">
<metadata>
Created by potrace 1.14, written by Peter Selinger 2001-2017
</metadata>
<g transform="translate(0.000000,872.000000) scale(0.100000,-0.100000)"
fill="#000000" stroke="none">
<path d="M0 4360 l0 -4360 4360 0 4360 0 0 4360 0 4360 -4360 0 -4360 0 0
-4360z m2393 3029 c-8 -8 -13 -7 -18 2 -5 8 -4 10 3 5 7 -4 12 -2 12 5 0 7 3
9 7 6 4 -4 2 -12 -4 -18z m-124 -123 c0 -21 -1 -21 -9 -1 -8 17 -9 16 -9 -9
-1 -21 -5 -27 -16 -22 -8 3 -15 1 -15 -5 0 -6 -7 -9 -15 -5 -8 3 -14 0 -12 -7
1 -7 -10 -13 -25 -15 -24 -3 -28 0 -27 20 1 27 17 79 18 60 1 -8 8 -6 23 8 25
23 39 25 57 8 10 -11 11 -9 6 7 -7 20 -6 20 9 1 9 -11 16 -29 15 -40z m-189
-120 c0 -6 -5 -4 -10 4 -6 10 -10 11 -10 3 0 -7 -4 -13 -9 -13 -5 0 -7 9 -4
20 4 16 8 18 19 9 8 -6 14 -17 14 -23z m-42 -17 c3 -40 2 -41 -23 -37 -14 3
-28 1 -31 -4 -3 -4 -10 -6 -15 -3 -8 6 -13 -8 -10 -27 0 -5 -6 -8 -15 -8 -8 0
-12 -5 -9 -10 4 -6 10 -8 15 -5 5 3 11 1 14 -4 4 -5 -2 -8 -11 -7 -10 2 -21
-2 -25 -8 -5 -7 -8 -5 -8 5 0 9 -6 19 -14 22 -24 9 -14 49 16 66 15 9 28 19
28 24 0 4 7 7 15 7 8 0 15 4 15 9 0 6 9 8 20 6 11 -2 22 0 25 6 9 14 10 12 13
-32z m1296 6 c-4 -8 -11 -12 -16 -9 -6 4 -5 10 3 15 19 12 19 11 13 -6z
m-1241 -26 c4 -16 3 -18 -8 -9 -8 7 -19 9 -25 5 -11 -6 -14 17 -4 28 10 10 32
-4 37 -24z m992 -49 c3 -5 1 -10 -4 -10 -6 0 -11 5 -11 10 0 6 2 10 4 10 3 0
8 -4 11 -10z m-1149 -53 c10 4 13 -1 12 -18 -2 -14 2 -23 9 -22 10 2 11 -34 1
-42 -6 -6 -48 15 -48 24 0 5 10 7 23 4 17 -5 19 -3 11 7 -14 14 -50 9 -46 -8
1 -7 -1 -11 -5 -10 -5 2 -18 -5 -31 -14 -20 -14 -28 -29 -31 -61 -1 -4 -10 -3
-21 3 -14 7 -20 7 -20 0 0 -5 -3 -9 -7 -9 -20 3 -34 -2 -28 -10 3 -5 -3 -12
-14 -16 -22 -7 -36 -35 -18 -36 7 0 1 -5 -13 -10 -20 -8 -22 -12 -10 -20 11
-8 10 -9 -8 -4 -17 5 -24 1 -31 -17 -6 -17 -5 -25 6 -31 11 -7 12 -12 2 -23
-10 -12 -9 -13 5 -8 11 4 16 1 16 -12 0 -16 2 -17 11 -4 9 12 10 12 5 -4 -4
-11 -2 -22 4 -26 7 -4 2 -13 -13 -23 -19 -12 -24 -13 -24 -2 0 8 5 11 11 8 6
-3 5 0 -2 8 -11 12 -15 11 -28 -5 -8 -11 -14 -26 -14 -33 0 -9 -10 -7 -35 7
-29 16 -33 17 -28 3 5 -13 2 -15 -11 -10 -12 5 -15 3 -10 -6 5 -7 0 -5 -11 3
-17 14 -18 13 -13 -8 4 -15 3 -20 -5 -15 -20 13 -36 12 -48 -3 -6 -8 -8 -14
-3 -14 5 0 3 -4 -5 -9 -16 -10 -24 -41 -11 -41 5 0 12 -9 15 -20 4 -11 11 -17
17 -14 6 4 7 9 1 13 -6 3 -16 17 -22 31 -11 22 -10 21 12 -5 18 -21 22 -34 15
-42 -6 -7 -14 -10 -19 -7 -5 3 -9 0 -9 -6 0 -6 -4 -9 -9 -5 -5 3 -16 -2 -25
-10 -16 -16 -36 -16 -47 -1 -4 5 -17 1 -30 -9 l-24 -17 23 5 c12 3 22 2 22 -2
0 -4 222 -6 493 -4 270 1 504 0 519 -3 49 -10 44 -67 -8 -89 -25 -10 -38 -10
-73 2 -28 9 -47 11 -53 5 -6 -6 -24 -6 -47 -1 -35 8 -84 4 -103 -7 -4 -3 -14
-2 -20 3 -16 9 -309 17 -548 13 -116 -1 -171 7 -187 27 -10 13 -14 12 -32 -6
-12 -12 -25 -21 -30 -21 -6 0 -13 -5 -17 -12 -4 -7 -3 -8 5 -4 6 4 2 -9 -9
-29 l-20 -36 22 -9 c14 -5 17 -9 8 -10 -13 0 -13 -1 0 -10 12 -7 10 -11 -10
-18 -14 -5 -30 -7 -36 -5 -19 7 -23 -23 -8 -53 8 -15 12 -34 9 -42 -3 -8 3
-16 15 -19 11 -3 17 -9 14 -14 -3 -5 -1 -9 5 -9 6 0 7 -7 4 -17 -5 -12 -3 -14
8 -8 11 6 11 5 2 -5 -6 -7 -10 -18 -7 -24 2 -6 -7 -24 -21 -40 -13 -16 -22
-33 -19 -37 3 -5 -2 -12 -10 -15 -9 -3 -16 -16 -16 -27 0 -16 -3 -18 -12 -9
-9 9 -17 7 -35 -10 -27 -25 -28 -35 -8 -58 13 -14 11 -19 -14 -47 -16 -18 -26
-34 -23 -37 3 -3 0 -6 -6 -6 -7 0 -12 7 -12 15 0 22 -18 18 -31 -6 -8 -15 -8
-19 0 -15 6 4 11 3 11 -3 0 -5 -9 -13 -20 -16 -11 -4 -18 -10 -15 -15 3 -5 1
-11 -5 -15 -6 -4 -8 -10 -5 -15 3 -5 1 -11 -4 -15 -17 -10 0 -35 23 -35 15 0
17 -3 8 -9 -11 -6 -10 -11 3 -24 9 -9 14 -21 11 -26 -3 -4 9 -8 27 -7 23 0 33
-4 35 -18 3 -13 0 -16 -9 -11 -8 5 -10 4 -5 -3 4 -7 1 -12 -6 -12 -11 0 -10
-2 0 -9 11 -7 11 -9 -2 -14 -9 -4 -16 -2 -16 3 0 6 -9 6 -25 0 -15 -6 -27 -6
-30 0 -3 5 -12 7 -20 4 -8 -4 -12 -10 -9 -15 3 -5 -1 -9 -8 -9 -7 0 -2 -7 10
-16 13 -9 32 -14 43 -11 12 3 19 0 19 -10 0 -8 -4 -11 -10 -8 -6 3 -7 -1 -4
-9 3 -9 11 -13 17 -9 6 3 7 1 3 -6 -6 -9 -11 -9 -24 1 -10 8 -13 9 -9 1 4 -6
-2 -28 -14 -48 -12 -20 -19 -39 -15 -42 3 -3 -3 -13 -15 -21 -15 -10 -18 -17
-10 -25 18 -18 12 -31 -6 -16 -16 13 -17 12 -4 -4 8 -10 21 -15 30 -12 11 3
10 1 -3 -10 -10 -8 -23 -12 -27 -9 -11 6 -42 -42 -37 -58 3 -7 -2 -19 -10 -27
-9 -10 -11 -16 -4 -19 7 -2 8 -12 3 -25 -7 -22 -5 -100 4 -125 3 -7 10 -10 16
-6 8 5 9 3 5 -5 -10 -16 -49 17 -42 36 3 7 0 13 -6 13 -6 0 -9 3 -5 6 6 6 -23
44 -33 44 -3 0 -7 -18 -8 -40 -2 -30 4 -49 23 -75 18 -23 25 -41 20 -54 -3
-11 -2 -28 3 -38 12 -23 5 -43 -14 -43 -9 0 -13 -4 -10 -9 8 -12 -23 -23 -45
-16 -11 4 -19 3 -20 -2 0 -4 -2 -21 -4 -38 -1 -16 -6 -45 -10 -62 -5 -23 -4
-33 4 -33 7 0 9 -5 5 -11 -4 -7 1 -9 12 -7 11 2 18 11 17 22 0 11 4 15 13 12
7 -3 16 -1 19 4 10 16 23 11 30 -11 4 -13 0 -27 -11 -40 -9 -10 -14 -19 -9
-19 4 0 2 -7 -5 -15 -7 -8 -10 -22 -6 -30 4 -11 2 -14 -6 -9 -8 5 -9 2 -5 -10
4 -11 3 -15 -4 -11 -6 4 -13 -2 -16 -14 -5 -21 -14 -25 -43 -22 -12 2 -12 0
-1 -7 9 -6 10 -12 3 -16 -22 -13 27 -80 58 -81 14 0 16 -20 4 -55 -4 -11 -7
-12 -13 -2 -4 7 -18 14 -30 17 -20 4 -22 0 -19 -28 2 -26 7 -32 26 -31 19 1
20 -1 10 -14 -9 -11 -9 -14 -1 -9 15 9 27 -9 16 -25 -11 -19 -11 -91 0 -105 6
-8 19 -10 35 -6 20 5 24 3 19 -10 -3 -9 -1 -17 4 -19 6 -2 2 -15 -10 -28 -17
-21 -20 -22 -21 -7 0 30 -39 21 -45 -10 -3 -16 -10 -42 -15 -59 -13 -39 -13
-67 0 -59 9 6 14 -8 11 -28 -1 -5 4 -7 11 -4 7 2 12 10 10 16 -1 6 2 11 8 11
5 0 10 -4 10 -8 0 -14 -36 -43 -43 -35 -13 12 -7 -16 6 -29 23 -24 49 -70 43
-76 -3 -3 1 -13 10 -23 12 -13 13 -22 5 -37 -8 -15 -8 -22 2 -25 6 -3 2 -6
-11 -6 -13 -1 -21 -5 -18 -10 3 -4 -3 -18 -13 -30 -18 -20 -19 -41 -4 -81 13
-34 10 -44 -17 -72 l-29 -28 24 -24 c16 -16 21 -30 18 -49 -6 -33 3 -34 28 -4
20 24 25 42 9 32 -6 -3 -10 1 -10 10 0 10 -5 14 -12 9 -10 -5 -10 -4 -1 6 8 9
9 19 2 32 -13 25 -2 40 23 32 12 -3 18 -2 15 3 -3 5 6 8 22 5 26 -4 28 -7 25
-44 -2 -21 -7 -44 -10 -50 -4 -6 -3 -8 3 -5 6 4 18 0 28 -7 16 -12 13 -13 -26
-12 -40 1 -44 -1 -47 -25 -4 -33 22 -57 43 -39 8 7 12 17 8 23 -3 6 -1 7 5 3
7 -4 12 -1 12 6 1 7 8 -3 17 -22 17 -37 18 -69 2 -85 -7 -7 -8 -3 -4 10 5 14
4 16 -3 6 -8 -11 -4 -48 9 -91 0 -3 6 -4 11 -2 6 1 18 0 28 -3 21 -7 21 -56 0
-63 -9 -3 -9 -6 1 -13 11 -7 12 -10 1 -21 -8 -7 -13 -8 -12 -3 4 20 -13 55
-26 55 -17 0 -18 -12 -2 -28 7 -7 9 -12 5 -12 -4 0 -3 -9 3 -20 6 -11 16 -20
23 -20 7 0 13 -8 13 -17 2 -47 37 -91 70 -87 17 1 20 -2 16 -23 -3 -16 2 -31
17 -44 22 -21 28 -35 11 -24 -5 3 -10 1 -10 -4 0 -6 5 -11 11 -11 5 0 7 -4 4
-10 -3 -5 -1 -10 5 -10 6 0 9 -4 5 -9 -3 -5 -1 -12 5 -16 9 -5 15 23 11 48 -2
13 32 66 45 71 18 7 27 -29 19 -80 -7 -46 8 -89 27 -78 6 4 8 3 4 -4 -3 -6 1
-15 10 -20 15 -8 14 -12 -9 -27 -15 -9 -34 -14 -43 -11 -15 6 -15 4 -3 -10 12
-15 11 -16 -8 -10 -18 6 -21 4 -16 -16 8 -38 25 -67 43 -73 31 -10 58 -85 69
-195 15 -146 16 -203 5 -223 -15 -26 -34 -14 -74 46 -19 28 -37 54 -40 57 -10
9 -54 74 -70 102 -8 15 -45 75 -82 133 -38 59 -68 109 -68 112 0 4 -38 83 -84
177 -49 99 -97 215 -115 276 -18 58 -40 125 -51 150 -23 55 -48 143 -54 190
-2 19 -14 80 -26 135 -12 55 -26 123 -30 150 -5 28 -15 89 -24 137 -16 89 -23
190 -31 458 -3 85 -7 171 -9 190 -6 76 42 456 74 578 11 42 20 89 20 105 0 23
59 222 101 342 6 17 19 55 29 85 28 85 80 202 115 260 12 19 31 61 43 93 12
32 33 73 47 91 14 18 25 35 25 39 0 10 84 152 92 155 4 2 8 9 8 16 0 18 75
133 105 160 14 13 25 28 25 35 0 6 5 11 10 11 6 0 10 6 10 14 0 7 16 30 35 50
19 21 35 41 35 46 0 4 26 35 58 69 31 33 82 88 112 122 64 73 84 92 180 179
40 36 80 73 89 82 9 9 37 26 61 37 l45 20 18 -24 c10 -14 24 -22 33 -18z
m1409 -95 c-3 -3 -11 0 -18 7 -9 10 -8 11 6 5 10 -3 15 -9 12 -12z m-25 -27
c-7 -9 -15 -13 -17 -11 -7 7 7 26 19 26 6 0 6 -6 -2 -15z m-236 -46 c-3 -5
-13 -9 -22 -9 -13 0 -14 2 -3 9 9 6 10 11 2 15 -6 4 -11 12 -11 18 0 6 9 3 20
-7 11 -10 17 -22 14 -26z m368 -41 c-18 -18 -15 -26 11 -31 14 -3 10 -4 -9 -3
-17 1 -39 10 -50 21 -13 13 -14 17 -4 13 8 -3 24 -2 35 3 28 11 31 11 17 -3z
m-1662 -32 c0 4 11 -3 24 -15 18 -17 26 -19 31 -10 5 7 4 10 -3 5 -6 -3 -13
-2 -16 3 -4 5 0 8 6 7 14 -2 18 -8 18 -31 0 -9 -6 -12 -15 -9 -9 4 -18 -1 -21
-11 -5 -13 -9 -14 -15 -3 -6 9 -9 7 -9 -9 0 -13 -4 -23 -10 -23 -5 0 -6 7 -3
17 4 10 2 14 -5 9 -7 -4 -10 1 -7 13 2 13 -6 28 -23 41 -15 12 -22 19 -17 16
6 -2 17 -1 25 4 9 5 19 5 27 -2 7 -6 13 -7 13 -2z m1327 -66 c-2 -11 -6 -22
-9 -26 -4 -3 -5 2 -3 13 2 10 4 21 4 26 1 4 3 7 6 7 3 0 4 -9 2 -20z m54 6
c-9 -10 -8 -15 4 -20 8 -3 14 -16 14 -28 l-2 -23 -4 23 c-2 12 -11 22 -19 22
-17 0 -19 26 -1 33 19 8 20 8 8 -7z m-22 -42 c0 -4 5 -11 13 -15 10 -7 10 -9
0 -9 -7 0 -10 -5 -7 -11 4 -6 -2 -5 -14 3 -12 7 -17 14 -12 16 5 2 7 17 5 35
-3 28 -3 29 6 9 5 -12 9 -25 9 -28z m-1529 -96 c0 -6 -6 -5 -15 2 -8 7 -15 14
-15 16 0 2 7 1 15 -2 8 -4 15 -11 15 -16z m1805 12 c3 -6 -1 -7 -9 -4 -18 7
-21 14 -7 14 6 0 13 -4 16 -10z m-762 -96 c-3 -15 -20 -15 -26 0 -4 9 0 13 11
12 9 -2 16 -7 15 -12z m237 -58 c0 -3 -4 -8 -10 -11 -5 -3 -10 -1 -10 4 0 6 5
11 10 11 6 0 10 -2 10 -4z m1646 -30 c17 -13 17 -15 1 -47 -12 -25 -18 -70
-22 -174 -7 -196 -6 -254 9 -500 10 -150 13 -400 32 -2257 6 -585 6 -606 -12
-616 -22 -11 -850 -9 -876 2 -9 4 -19 14 -22 21 -6 17 -82 135 -278 435 -208
318 -228 350 -228 359 0 5 -4 11 -8 13 -5 1 -29 35 -53 73 -23 39 -46 72 -49
75 -3 3 -28 41 -55 85 -27 44 -68 108 -90 141 -22 34 -49 77 -60 95 -26 43
-23 38 -146 224 -59 88 -121 187 -139 220 -18 33 -41 74 -51 90 -10 17 -59
113 -109 215 -51 102 -102 205 -113 229 -25 49 -52 71 -82 67 -33 -5 -44 -39
-29 -96 7 -28 15 -54 18 -58 6 -10 52 -239 62 -307 3 -27 8 -162 10 -300 2
-137 5 -344 8 -460 2 -115 6 -414 7 -664 3 -444 3 -454 -16 -461 -11 -4 -213
-6 -449 -5 -347 2 -430 5 -437 16 -6 10 -6 1425 -1 2119 0 14 0 105 -1 202 -1
98 0 178 3 178 3 0 6 14 5 30 0 17 -2 30 -5 30 -3 0 -4 21 -2 48 2 26 5 94 7
152 4 157 7 193 17 213 5 10 5 17 0 17 -5 0 -9 11 -9 25 0 16 4 22 11 18 6 -4
5 0 -2 9 -10 13 -10 17 3 22 8 3 22 3 30 0 8 -4 15 -1 15 7 0 7 2 10 5 7 11
-10 -7 -37 -21 -31 -8 3 -14 0 -14 -7 0 -6 5 -8 11 -5 6 4 13 -2 16 -14 3 -11
9 -18 14 -15 5 3 6 11 3 17 -4 7 -3 9 1 4 14 -12 17 -49 3 -41 -7 4 -8 3 -4
-4 7 -12 36 -5 36 8 0 4 7 10 15 14 21 8 19 1 -10 -28 -28 -28 -32 -38 -11
-30 8 3 17 0 21 -6 4 -7 0 -10 -11 -8 -14 2 -18 -2 -16 -17 2 -16 1 -17 -7 -5
-5 8 -11 12 -13 10 -18 -28 -28 -53 -24 -58 3 -3 6 1 6 9 0 11 2 11 10 -1 13
-20 13 -33 0 -25 -5 3 -7 0 -4 -9 5 -12 9 -11 26 6 11 11 17 26 14 33 -2 7 1
18 7 24 10 7 12 2 12 -24 l-2 -33 28 21 c30 21 48 52 27 44 -7 -2 -12 -9 -11
-15 1 -5 -7 -12 -17 -15 -11 -3 -20 -1 -20 4 0 5 5 9 11 9 5 0 7 5 4 10 -3 6
1 10 10 10 9 0 14 4 11 8 -3 5 1 9 9 9 14 0 19 -10 16 -29 -2 -13 9 -9 26 8 9
8 22 13 30 10 8 -3 11 -1 8 4 -3 6 -17 10 -31 10 -20 0 -24 4 -19 19 4 14 0
21 -12 24 -12 3 -9 5 9 6 16 1 26 6 24 14 -1 6 -1 9 1 5 3 -5 12 -8 21 -8 15
0 15 -2 2 -10 -12 -8 -9 -10 11 -10 14 0 34 -9 44 -20 16 -17 16 -20 3 -15
-11 4 -20 -1 -27 -14 -16 -28 -14 -44 5 -37 8 3 13 2 10 -3 -3 -5 3 -11 14
-14 10 -3 21 0 24 7 2 6 5 7 5 1 0 -5 -4 -17 -10 -25 -8 -11 -12 -12 -16 -2
-2 6 -10 12 -16 12 -8 0 -8 -3 1 -12 9 -9 7 -15 -6 -25 -15 -13 -15 -13 5 -4
26 13 36 14 30 4 -3 -5 1 -14 9 -21 10 -9 14 -9 14 -1 0 8 4 8 13 2 8 -6 20
-6 35 2 21 11 22 13 5 19 -16 7 -16 9 7 22 20 13 21 14 5 11 -22 -4 -51 18
-36 28 5 3 12 -1 14 -7 3 -7 6 -8 6 -3 1 15 -21 40 -47 54 -26 14 -21 31 9 31
11 0 17 5 14 10 -3 6 1 10 10 10 10 0 13 5 9 13 -4 7 -3 9 2 4 5 -5 9 -14 9
-20 0 -7 9 -13 20 -16 17 -3 18 -2 5 15 -8 10 -10 15 -3 11 6 -4 14 -3 18 3 9
14 28 1 21 -15 -2 -7 1 -16 9 -19 7 -2 16 2 19 10 4 10 2 12 -6 8 -8 -5 -9 -2
-5 9 4 10 0 20 -11 26 -9 6 -14 11 -10 11 40 2 59 -60 34 -111 -9 -17 -13 -35
-11 -39 3 -5 -1 -11 -7 -14 -7 -3 -4 -4 7 -3 13 1 19 -3 17 -12 -3 -12 0 -12
12 -1 19 15 21 0 4 -20 -11 -12 -11 -13 1 -3 7 6 20 9 27 6 19 -7 18 12 -2 31
-14 14 -11 20 8 17 9 -1 4 27 -7 36 -4 4 -5 2 0 -6 5 -9 4 -12 -3 -7 -7 4 -8
17 -1 39 11 39 11 37 -2 37 -5 0 -8 -3 -5 -8 2 -4 -2 -18 -11 -32 -9 -17 -12
-18 -8 -5 7 21 13 44 14 58 1 4 11 7 24 7 16 0 18 3 8 9 -11 7 -9 10 8 16 18
5 20 9 10 21 -10 12 -14 11 -26 -6 -14 -19 -40 -29 -28 -11 3 5 -3 12 -12 15
-11 3 -8 4 7 3 17 -1 24 3 22 12 -2 9 4 12 21 9 18 -3 24 0 23 11 -1 9 5 15
13 13 11 -2 12 0 4 10 -8 10 -7 19 7 35 9 12 20 20 22 18 2 -3 3 7 1 23 -3 21
1 29 18 37 13 6 25 17 27 25 3 8 1 12 -3 8 -4 -4 -14 0 -22 10 -8 9 -12 12 -9
5 4 -6 0 -14 -6 -16 -8 -3 -6 -6 5 -6 9 -1 17 -5 17 -11 0 -15 -16 -12 -30 5
-11 13 -15 13 -21 3 -11 -16 -12 2 -3 27 5 13 8 14 15 3 7 -10 9 -9 9 4 0 11
6 16 19 13 11 -2 26 4 33 13 12 15 11 16 -4 4 -15 -12 -17 -11 -15 7 1 16 6
19 24 15 20 -5 23 -2 23 20 0 16 6 26 14 26 14 0 31 29 21 38 -2 3 -7 -3 -11
-12 -3 -9 -10 -13 -16 -10 -5 3 0 13 12 21 25 18 32 13 33 -22 0 -14 4 -25 9
-25 5 0 7 -4 3 -9 -3 -5 -1 -13 5 -16 8 -5 7 -12 -2 -22 -6 -8 -11 -33 -9 -55
2 -30 0 -38 -10 -33 -8 5 -10 4 -5 -3 4 -6 13 -9 21 -5 8 3 15 0 15 -6 0 -6
-9 -11 -19 -11 -29 0 -34 -16 -17 -47 8 -16 15 -24 16 -20 0 5 -5 17 -10 28
-7 13 -7 19 0 19 5 0 10 -4 10 -9 0 -14 32 -23 44 -11 7 7 6 14 -2 22 -9 9
-12 8 -12 -7 0 -10 -3 -16 -6 -12 -4 3 -4 14 0 23 5 13 9 14 21 4 20 -17 19
-46 -2 -60 -17 -11 -17 -11 0 -6 10 3 23 6 28 6 6 0 7 5 4 10 -3 6 -4 10 0 10
3 0 10 -11 15 -25 10 -26 24 -32 35 -15 3 5 0 7 -9 4 -11 -4 -15 2 -14 24 1
29 2 29 20 12 11 -10 28 -16 41 -13 18 4 19 3 7 -6 -13 -9 -13 -11 2 -11 9 0
19 -4 23 -9 3 -6 -6 -8 -22 -5 -18 3 -24 2 -18 -4 14 -14 95 -22 95 -9 0 5 8
3 18 -4 9 -7 14 -9 10 -5 -10 12 12 37 25 29 6 -4 7 -1 3 6 -6 9 -12 8 -26 -4
-16 -14 -18 -14 -23 0 -4 10 0 15 11 16 10 0 12 3 5 6 -22 8 -14 27 19 43 17
9 32 24 34 33 3 24 -3 21 -31 -10 -24 -29 -27 -19 -7 30 7 16 12 35 12 43 0 9
6 14 13 11 6 -2 11 -11 11 -20 -1 -9 2 -14 7 -11 5 3 9 -2 9 -11 0 -9 4 -14 9
-10 6 3 8 14 6 25 -2 11 0 20 6 20 5 0 9 -6 9 -12 0 -9 4 -8 10 2 5 8 10 11
10 6 0 -6 5 -5 12 2 15 15 74 -47 106 -112 13 -25 27 -46 31 -46 8 0 101 -126
101 -138 1 -4 14 -23 30 -42 17 -19 30 -38 30 -43 0 -10 76 -112 113 -151 15
-16 27 -33 27 -37 0 -11 71 -131 87 -147 7 -7 20 -26 30 -42 9 -17 21 -30 25
-30 4 0 17 -19 29 -42 18 -36 126 -196 157 -233 5 -6 17 -24 27 -40 10 -17 37
-59 60 -95 101 -157 145 -233 204 -350 35 -69 66 -129 70 -133 12 -12 61 51
61 77 0 12 -6 46 -14 76 -24 95 -29 123 -32 205 -3 71 -9 117 -21 165 -2 8 -6
61 -8 117 -2 56 -6 106 -9 111 -5 9 -19 222 -18 282 1 19 4 91 8 160 7 124 9
274 5 360 -2 48 1 69 11 85 4 6 3 17 -2 25 -5 9 -5 19 2 27 6 7 7 13 4 13 -4
0 -2 9 4 19 6 13 7 20 0 23 -14 4 -20 110 -7 126 6 8 5 12 -4 12 -8 0 -6 5 6
14 18 13 17 14 -8 36 -25 22 -35 58 -21 73 4 3 205 6 449 6 357 0 446 -2 461
-13z m-1940 -8 c3 -4 -1 -5 -10 -4 -8 1 -18 5 -22 8 -3 4 1 5 10 4 8 -1 18 -5
22 -8z m3704 -12 c308 -42 543 -137 653 -264 18 -19 39 -43 48 -51 77 -77 219
-282 282 -407 46 -91 39 -113 -43 -130 -30 -6 -85 -21 -122 -33 -37 -12 -82
-21 -100 -19 -31 3 -35 8 -63 78 -42 107 -80 167 -144 230 -133 133 -331 226
-561 266 -124 21 -339 14 -455 -15 -154 -38 -326 -130 -400 -212 -79 -89 -125
-210 -127 -337 -2 -107 7 -159 38 -226 38 -84 149 -186 201 -186 8 0 29 -6 46
-14 18 -8 70 -29 117 -46 47 -18 94 -36 105 -41 23 -9 104 -30 215 -54 136
-30 155 -34 180 -40 25 -7 85 -20 129 -29 13 -3 61 -15 106 -26 45 -11 91 -22
101 -25 11 -2 39 -8 64 -14 25 -5 57 -12 71 -14 14 -3 59 -17 100 -31 41 -15
81 -29 89 -30 40 -10 170 -74 214 -105 58 -43 114 -95 145 -136 12 -16 39 -48
60 -70 67 -72 115 -153 173 -295 35 -83 43 -257 21 -425 -9 -66 -24 -136 -33
-155 -10 -19 -19 -39 -20 -45 -1 -5 -22 -44 -47 -85 -71 -121 -188 -256 -230
-266 -13 -4 -23 -10 -23 -14 0 -14 -54 -70 -67 -70 -7 0 -13 -3 -13 -8 0 -8
-16 -17 -66 -41 -16 -7 -40 -19 -54 -26 -14 -7 -42 -16 -62 -20 -21 -4 -38
-12 -38 -17 0 -6 -7 -8 -15 -4 -8 3 -15 2 -15 -2 0 -4 -18 -8 -40 -8 -25 -1
-37 2 -33 9 3 6 1 7 -6 3 -6 -4 -9 -11 -6 -16 3 -4 -2 -10 -10 -14 -10 -3 -15
1 -15 14 0 10 -4 22 -10 25 -6 4 -7 -1 -4 -12 5 -16 4 -16 -10 1 -23 28 -20
35 16 33 19 -1 33 3 36 12 3 8 0 11 -7 7 -6 -4 -11 -2 -11 3 0 20 20 11 30
-11 5 -13 9 -17 9 -9 1 8 9 20 19 27 9 7 17 18 17 26 1 7 7 12 14 10 7 -1 10
2 6 8 -3 5 -13 10 -21 10 -8 0 -13 -4 -10 -9 3 -4 -3 -16 -14 -26 -19 -17 -20
-17 -20 -1 0 10 -5 14 -12 10 -7 -4 -8 -3 -4 4 4 6 14 8 23 5 15 -6 16 -5 3 9
-14 15 -17 14 -37 -5 -13 -11 -26 -17 -30 -14 -3 4 0 7 8 7 11 0 11 2 -1 10
-12 8 -10 10 9 10 17 0 22 4 17 15 -5 13 -2 14 15 4 15 -8 24 -8 32 0 8 8 8
11 -1 11 -8 0 -11 10 -8 25 4 21 1 25 -20 25 -13 0 -24 -4 -24 -10 0 -5 -6 -7
-14 -4 -8 3 -31 -3 -53 -14 -21 -11 -46 -18 -55 -17 -10 2 -18 -1 -18 -6 0 -5
-7 -9 -16 -9 -9 0 -12 5 -8 12 4 6 3 8 -4 4 -8 -4 -8 -15 0 -36 12 -35 22 -41
13 -7 -5 20 -5 20 9 -3 9 -14 15 -19 16 -11 0 8 2 12 5 9 13 -13 -9 -38 -34
-38 -20 0 -23 -2 -11 -10 13 -9 13 -10 0 -10 -9 0 -11 -3 -5 -8 6 -4 10 -13 9
-19 -1 -7 -2 -17 -3 -23 -1 -13 -31 -13 -31 -1 0 6 4 13 10 16 5 3 8 16 6 28
-2 12 0 27 5 32 5 7 -3 10 -26 7 -19 -2 -32 -8 -29 -13 3 -5 -2 -9 -11 -9 -21
0 -10 18 19 31 19 9 18 9 -6 6 -27 -4 -47 16 -28 28 6 4 10 2 10 -2 0 -5 8 -9
18 -9 9 -1 24 -3 32 -6 8 -3 11 -3 6 0 -4 2 -4 7 2 11 6 4 5 11 -4 19 -12 11
-14 10 -14 -3 0 -9 -4 -14 -8 -11 -18 11 -62 14 -62 5 0 -6 -6 -7 -12 -3 -7 4
-10 4 -6 -1 13 -14 -11 -45 -29 -38 -13 5 -15 2 -9 -12 4 -11 4 -16 0 -12 -4
4 -13 2 -20 -4 -13 -11 -21 0 -38 54 -3 9 -10 17 -15 17 -7 0 -7 -9 0 -27 10
-28 10 -28 -9 -8 -11 11 -18 23 -15 27 2 5 -7 7 -21 6 l-24 -2 21 -22 c12 -12
32 -25 45 -29 15 -4 21 -12 18 -21 -7 -19 27 -37 43 -21 8 8 15 7 29 -7 16
-18 16 -18 0 -13 -26 9 -31 -9 -8 -26 11 -7 17 -17 12 -22 -4 -4 4 -2 16 5 16
8 22 18 19 31 -3 13 -1 17 6 12 17 -11 31 -10 39 1 4 6 2 14 -5 18 -8 5 -6 8
6 8 9 0 18 -4 18 -10 4 -32 20 -61 30 -54 5 3 9 -2 9 -11 0 -9 -4 -14 -9 -11
-5 3 -14 -1 -21 -9 -14 -16 -100 -16 -112 0 -5 6 -8 5 -8 -3 0 -7 -5 -10 -10
-7 -6 4 -16 3 -23 -2 -11 -8 -33 -9 -75 -5 -7 1 -11 6 -7 11 3 6 -6 6 -25 1
-40 -11 -38 -3 3 15 18 8 25 14 15 15 -10 0 -18 4 -18 10 0 5 6 7 13 4 8 -3
14 1 14 9 0 9 -10 13 -28 11 -16 -2 -31 1 -34 6 -6 9 7 14 30 11 6 -1 2 5 -7
12 -18 14 -26 33 -10 23 5 -3 9 1 9 9 0 17 0 17 -21 9 -9 -3 -13 -11 -9 -17 3
-6 1 -7 -5 -3 -14 9 -4 36 13 36 8 0 17 4 20 10 4 6 -1 7 -12 3 -16 -6 -16 -5
-4 10 7 9 9 17 5 17 -5 0 -15 -9 -22 -20 -7 -12 -18 -18 -24 -14 -7 4 -8 3 -4
-4 5 -8 0 -12 -13 -12 -12 0 -21 6 -21 13 0 8 -4 7 -10 -3 -8 -13 -10 -12 -10
4 0 12 -5 16 -15 12 -8 -3 -15 -2 -15 2 0 4 -9 13 -21 20 -17 11 -20 11 -14 0
3 -7 0 -5 -8 4 -14 18 -68 32 -159 43 -27 4 -48 10 -48 14 0 7 -20 8 -52 2 -5
0 -8 -8 -8 -17 0 -12 -5 -11 -19 7 -16 20 -22 22 -33 11 -11 -11 -10 -12 3 -7
10 4 20 1 24 -5 3 -6 3 -10 -2 -9 -21 4 -34 -2 -28 -13 4 -7 -1 -4 -9 7 -9 11
-14 25 -12 31 2 6 -6 17 -19 24 -14 7 -21 18 -18 24 3 6 3 8 -2 4 -4 -4 -14
-3 -22 4 -7 6 -16 8 -19 5 -9 -8 6 -48 16 -42 4 3 19 0 32 -5 23 -10 23 -10 1
-6 -27 5 -29 0 -8 -20 19 -20 19 -30 -1 -38 -8 -3 -12 -2 -9 3 3 5 0 11 -7 14
-7 2 -5 3 6 1 18 -3 18 -2 0 15 -14 13 -32 16 -74 14 -30 -2 -61 -5 -67 -8 -7
-2 -13 0 -13 6 0 6 -4 8 -9 4 -5 -3 -3 9 6 26 15 31 17 31 31 13 14 -18 14
-18 8 3 -4 12 -2 24 4 28 5 3 10 14 10 23 -1 13 -4 12 -13 -6 -7 -12 -16 -20
-20 -16 -4 4 -15 -3 -26 -14 -10 -12 -24 -22 -30 -22 -9 0 -9 -5 -1 -20 6 -12
7 -20 1 -20 -5 0 -12 6 -14 13 -3 6 -6 2 -6 -10 -1 -13 -7 -23 -13 -23 -7 0
-2 -8 12 -17 18 -13 25 -14 28 -4 4 11 6 11 13 0 7 -11 9 -11 9 3 0 9 -6 18
-12 21 -7 2 6 3 29 3 29 -1 38 -4 32 -12 -5 -6 -6 -14 -2 -17 3 -4 0 -7 -7 -7
-9 0 -8 -4 4 -13 20 -15 20 -15 -47 -21 -20 -2 -40 1 -44 7 -4 6 -1 7 7 2 8
-5 11 -3 8 6 -3 8 -13 16 -23 17 -10 3 -15 0 -11 -7 4 -6 3 -11 -3 -11 -19 0
-77 69 -79 94 -2 27 7 33 24 16 6 -6 10 0 11 15 4 48 6 55 18 55 6 0 26 13 43
28 25 23 29 31 19 41 -9 10 -8 11 7 5 15 -6 17 -4 11 6 -6 10 -4 11 6 4 8 -5
16 -9 19 -9 18 -3 59 -20 80 -35 14 -9 32 -17 40 -18 38 -2 60 -7 60 -13 0 -4
17 -10 38 -14 20 -4 42 -11 47 -15 6 -5 37 -12 70 -15 65 -8 74 -9 152 -25 63
-13 324 -18 408 -7 221 27 319 58 446 140 68 44 168 157 202 229 14 29 32 87
41 128 9 41 19 86 23 100 3 14 7 63 9 110 2 74 -1 93 -24 148 -32 75 -95 149
-163 192 -27 18 -49 36 -49 40 0 4 -11 11 -25 14 -14 4 -25 11 -25 16 0 6 -6
10 -13 10 -7 0 -31 9 -52 20 -51 26 -163 59 -355 104 -85 20 -195 48 -245 61
-49 14 -97 25 -105 25 -15 0 -256 61 -400 101 -41 11 -79 25 -85 30 -5 5 -15
9 -22 9 -20 0 -182 78 -227 110 -98 69 -219 207 -273 314 -35 68 -93 217 -93
237 0 9 -7 32 -15 52 -26 64 -29 181 -7 289 27 123 60 201 127 297 176 252
496 412 900 451 66 6 126 12 134 13 38 5 158 -3 261 -17z m-4197 -78 c-4 -7
-8 -19 -8 -27 0 -8 -7 -15 -16 -16 -12 -2 -15 3 -11 18 4 15 2 18 -8 12 -8 -5
-11 -4 -6 3 4 6 13 9 20 6 8 -3 17 -1 21 5 3 6 8 11 11 11 3 0 2 -6 -3 -12z
m237 -18 c0 -5 -2 -10 -4 -10 -3 0 -8 5 -11 10 -3 6 -1 10 4 10 6 0 11 -4 11
-10z m114 -64 c1 -29 4 -35 18 -30 23 7 23 -4 1 -28 -9 -11 -11 -18 -5 -18 7
0 12 4 12 8 0 17 39 10 45 -8 14 -44 14 -59 -1 -53 -7 3 -11 9 -8 14 3 5 -2 6
-12 2 -13 -5 -15 -2 -10 15 6 17 4 21 -8 16 -9 -3 -13 -11 -10 -18 3 -6 0 -4
-8 5 -7 9 -19 14 -25 12 -7 -3 -13 0 -13 7 0 6 5 8 11 4 7 -4 10 1 7 11 -1 10
-9 20 -17 23 -8 3 -11 0 -7 -7 5 -7 1 -9 -9 -5 -9 4 -15 14 -13 23 1 9 -1 22
-6 30 -6 10 -5 12 2 7 7 -4 13 -1 13 8 1 9 3 21 4 26 1 6 3 13 4 17 4 22 34
-32 35 -61z m-121 24 c7 0 6 -4 -3 -10 -24 -15 -28 -12 -22 18 4 19 7 22 10
10 2 -10 9 -18 15 -18z m-43 -23 c0 -5 -4 -5 -10 -2 -5 3 -10 14 -10 23 0 15
2 15 10 2 5 -8 10 -19 10 -23z m25 -21 c-17 -13 -18 -16 -5 -42 19 -38 24 -52
13 -36 -12 16 -53 24 -50 10 1 -6 -4 -13 -11 -15 -10 -4 -13 2 -10 18 2 16 9
24 21 23 11 -1 17 5 17 20 0 17 -2 18 -10 6 -7 -12 -12 -12 -21 -3 -12 12 -7
15 51 35 23 8 26 -1 5 -16z m9 -22 c3 -8 2 -12 -4 -9 -6 3 -10 10 -10 16 0 14
7 11 14 -7z m531 -4 c3 -5 2 -10 -4 -10 -5 0 -13 5 -16 10 -3 6 -2 10 4 10 5
0 13 -4 16 -10z m-1231 -25 c3 -8 1 -15 -4 -15 -6 0 -10 7 -10 15 0 8 2 15 4
15 2 0 6 -7 10 -15z m1201 -5 c3 -6 -1 -7 -9 -4 -18 7 -21 14 -7 14 6 0 13 -4
16 -10z m235 0 c-17 -11 -10 -20 17 -23 10 0 20 -9 20 -18 1 -14 -2 -15 -27
-6 -16 6 -27 15 -24 19 3 4 0 8 -7 8 -8 0 -8 4 1 15 7 8 18 15 24 15 6 0 4 -4
-4 -10z m-809 -33 c16 -22 16 -23 -16 -23 -33 0 -39 15 -7 17 11 0 12 3 5 6
-7 2 -13 9 -13 14 0 16 14 9 31 -14z m563 15 c3 -5 -1 -9 -9 -9 -8 0 -15 4
-15 9 0 4 4 8 9 8 6 0 12 -4 15 -8z m-1131 -15 c5 -15 -39 -22 -48 -8 -3 5 4
7 15 4 11 -3 20 0 20 6 0 15 7 14 13 -2z m210 -46 c3 -15 0 -18 -17 -14 -13 3
-17 2 -9 -4 19 -13 9 -49 -13 -45 -16 3 -16 2 -3 -14 11 -13 11 -18 1 -21 -6
-3 -9 -9 -6 -14 3 -6 12 -5 22 3 15 12 16 11 3 -4 -18 -23 -28 -23 -36 2 -8
24 -18 25 -39 5 -8 -8 -17 -11 -20 -6 -3 5 1 11 9 15 8 3 15 10 15 16 0 7 -5
8 -12 3 -7 -4 -23 -8 -35 -8 l-21 -1 21 31 c27 40 31 44 24 22 -4 -10 -3 -16
2 -12 5 3 16 -1 24 -9 8 -8 17 -12 21 -9 3 3 -3 13 -14 20 -19 14 -19 39 1 28
5 -4 9 -1 9 4 0 6 5 11 11 11 6 0 9 -7 5 -15 -3 -8 -1 -15 5 -15 6 0 7 -4 4
-10 -3 -5 -1 -10 5 -10 7 0 9 7 6 16 -5 13 14 46 30 53 1 1 4 -7 7 -18z m470
2 c-3 -7 1 -21 8 -31 13 -15 12 -16 -3 -4 -13 10 -17 10 -20 0 -3 -7 -10 2
-16 20 -10 30 -10 32 12 30 15 -1 22 -7 19 -15z m714 11 c-3 -3 -12 -4 -19 -1
-8 3 -5 6 6 6 11 1 17 -2 13 -5z m-1130 -11 c-4 -3 -2 -11 3 -18 7 -8 6 -12
-3 -12 -7 0 -14 9 -14 19 -1 10 3 18 9 18 6 0 8 -3 5 -7z m341 -27 c-13 -10
-15 -15 -6 -24 7 -7 8 -12 3 -12 -6 0 -4 -4 3 -8 8 -6 10 -16 5 -30 -8 -21 -9
-21 -21 -2 -10 17 -9 18 6 13 16 -6 16 -5 1 13 -19 23 -19 42 1 54 22 14 28
11 8 -4z m122 -1 c7 -8 9 -15 6 -15 -4 0 -14 7 -22 15 -9 8 -11 15 -6 15 5 0
15 -7 22 -15z m-773 -11 c-3 -3 -12 -4 -19 -1 -8 3 -5 6 6 6 11 1 17 -2 13 -5z
m298 -24 c3 -5 -1 -10 -10 -10 -9 0 -13 5 -10 10 3 6 8 10 10 10 2 0 7 -4 10
-10z m-453 -88 c2 -20 4 -21 14 -8 15 22 24 20 19 -4 -2 -11 0 -22 5 -25 6 -4
5 -14 -2 -25 -7 -10 -16 -16 -20 -13 -5 2 -4 11 3 19 19 23 -4 34 -74 35 -9 0
-15 5 -11 11 4 6 0 6 -14 -1 -16 -8 -21 -7 -26 5 -9 23 -7 44 4 44 5 0 7 -6 5
-12 -4 -9 6 -14 27 -15 29 -1 30 0 11 7 -15 6 -21 14 -16 25 5 13 7 14 14 3 5
-7 17 -13 27 -14 14 -1 18 5 15 25 -3 23 -2 23 7 -4 6 -16 11 -40 12 -53z
m108 68 c0 -5 -2 -10 -4 -10 -3 0 -8 5 -11 10 -3 6 -1 10 4 10 6 0 11 -4 11
-10z m-140 -15 c0 -8 -4 -15 -10 -15 -5 0 -7 7 -4 15 4 8 8 15 10 15 2 0 4 -7
4 -15z m188 -4 c11 -7 10 -9 -3 -14 -9 -4 -14 -3 -10 2 3 5 -1 12 -7 14 -7 3
-8 6 -3 6 6 0 16 -3 23 -8z m1774 -11 c-10 -9 -21 -22 -25 -30 -4 -12 -6 -11
-6 3 -1 10 7 21 16 24 15 6 15 7 -3 14 -15 6 -13 7 9 6 28 -1 28 -2 9 -17z
m-1751 -17 c-12 -20 -14 -14 -5 12 4 9 9 14 11 11 3 -2 0 -13 -6 -23z m274 17
c3 -5 1 -10 -4 -10 -6 0 -11 5 -11 10 0 6 2 10 4 10 3 0 8 -4 11 -10z m37 -4
c7 4 8 2 4 -5 -9 -13 -26 -5 -25 12 0 9 2 8 6 -1 2 -6 10 -9 15 -6z m-372 0
c0 -2 -7 -7 -16 -10 -8 -3 -12 -2 -9 4 6 10 25 14 25 6z m214 -11 c-4 -8 -11
-15 -16 -15 -6 0 -5 6 2 15 7 8 14 15 16 15 2 0 1 -7 -2 -15z m54 -39 c1 -17
-1 -18 -8 -6 -5 8 -10 11 -10 7 0 -5 -5 -5 -10 -2 -13 8 -5 22 13 22 7 0 14
-10 15 -21z m-3 -27 c17 -8 15 -8 -7 -4 -21 4 -26 2 -22 -9 3 -8 -3 -15 -13
-18 -14 -4 -19 1 -20 16 -1 12 1 15 4 9 5 -14 24 -18 22 -5 -4 24 4 26 36 11z
m-601 -80 c-2 -4 2 -10 8 -12 8 -4 7 -6 -4 -6 -9 -1 -20 4 -23 9 -4 6 -10 8
-15 5 -5 -3 -11 -1 -14 4 -3 5 1 12 10 15 10 4 14 13 10 24 -4 10 2 7 13 -8
11 -13 18 -28 15 -31z m316 16 c0 -2 -9 -3 -19 -2 -11 0 -18 5 -15 9 4 6 34 0
34 -7z m-331 -39 c11 -14 6 -15 -27 -7 -4 1 8 21 12 21 2 0 9 -6 15 -14z m-61
-30 c9 12 13 14 9 4 -2 -9 1 -24 9 -35 8 -10 14 -14 14 -9 0 6 -5 15 -12 22
-9 9 -9 12 1 12 7 0 9 4 6 10 -3 6 1 7 9 4 11 -4 14 -14 10 -33 -6 -28 -11
-58 -13 -79 0 -7 -5 -11 -10 -7 -6 3 -15 -3 -21 -12 -10 -17 -10 -16 -8 2 2
12 -2 19 -10 17 -9 -2 -11 2 -5 10 4 7 8 18 8 23 0 6 8 9 18 9 22 -2 21 -1 -3
21 -16 14 -19 15 -15 4 3 -9 -1 -21 -9 -28 -13 -11 -15 -10 -11 7 2 10 -5 25
-16 33 -23 16 -25 34 -4 25 8 -3 15 0 15 7 0 7 6 3 12 -7 11 -19 11 -19 26 0z
m557 -26 c3 -5 1 -10 -4 -10 -6 0 -11 5 -11 10 0 6 2 10 4 10 3 0 8 -4 11 -10z
m-571 -133 c6 14 9 15 16 3 6 -10 3 -18 -11 -28 -20 -14 -26 -42 -10 -42 15 0
22 18 9 22 -8 3 -6 7 5 11 11 4 17 1 17 -8 0 -8 5 -15 11 -15 5 0 7 6 3 13 -5
8 -2 8 9 -2 9 -7 17 -23 17 -34 0 -21 0 -21 -16 -1 -8 10 -13 13 -9 7 3 -7 1
-13 -5 -13 -6 0 -8 -4 -5 -10 3 -6 -1 -7 -10 -3 -12 4 -13 8 -5 13 9 5 9 9 1
14 -6 4 -14 1 -17 -7 -3 -8 -14 -17 -24 -20 -17 -4 -18 -1 -13 27 3 17 9 35
14 40 4 5 4 18 -2 30 -9 19 -9 20 4 3 14 -17 15 -17 21 0z m2139 -91 c8 8 3
-18 -6 -33 -12 -19 -21 -16 -33 12 -13 26 1 40 22 24 6 -5 13 -6 17 -3z m-43
-26 c0 -5 -2 -10 -4 -10 -3 0 -8 5 -11 10 -3 6 -1 10 4 10 6 0 11 -4 11 -10z
m-2210 -372 c0 -25 -35 -23 -37 1 -1 14 4 19 18 18 11 -1 19 -9 19 -19z m23
-135 c4 -3 3 -11 -2 -17 -9 -11 -11 -17 -11 -36 0 -5 -7 -7 -15 -4 -8 3 -14
16 -13 29 1 13 6 21 10 19 4 -3 8 0 8 5 0 12 13 15 23 4z m-208 -302 c-3 -6
-11 -8 -17 -5 -6 4 -5 9 3 15 16 10 23 4 14 -10z m102 -408 c-4 -3 4 -16 17
-28 17 -15 21 -26 15 -37 -6 -10 -4 -20 6 -28 8 -7 12 -17 9 -22 -7 -12 44
-68 62 -68 7 0 12 -8 11 -19 -1 -13 -7 -17 -21 -13 -19 5 -19 6 -1 12 17 6 16
8 -8 14 -15 3 -25 11 -22 16 3 5 -3 14 -14 20 -17 8 -19 7 -16 -9 3 -15 -1
-18 -18 -13 -12 3 -25 10 -29 16 -11 16 -10 56 2 56 5 0 7 7 4 15 -4 8 -9 13
-13 10 -4 -2 -8 12 -9 32 -1 21 4 41 11 45 15 9 23 10 14 1z m122 -170 c2 -2
-3 -3 -11 -3 -9 0 -19 7 -22 16 -6 15 -4 15 11 3 10 -7 20 -15 22 -16z m3984
-238 c12 -11 13 -23 5 -57 -8 -36 -6 -50 11 -83 11 -22 21 -47 23 -55 2 -8 5
-17 8 -20 3 -3 14 -16 25 -30 l20 -25 -20 15 c-15 11 -14 7 5 -15 14 -17 31
-34 38 -38 6 -4 12 -16 12 -25 0 -10 9 -24 20 -32 11 -8 20 -18 20 -21 0 -10
60 -70 60 -61 0 4 5 -1 11 -10 5 -10 15 -18 20 -18 16 0 40 -27 37 -42 -5 -19
-22 -36 -32 -30 -5 3 -6 0 -2 -6 5 -8 -3 -10 -26 -5 -29 6 -32 5 -20 -9 11
-14 10 -17 -6 -22 -24 -8 -37 -46 -15 -46 8 0 12 4 8 9 -6 11 13 26 22 17 4
-3 -2 -16 -13 -28 -18 -20 -18 -21 -1 -15 10 4 16 3 12 -2 -7 -12 -45 -10 -45
2 0 5 -10 6 -22 3 -13 -3 -17 -3 -10 0 17 8 15 34 -4 34 -8 0 -13 4 -9 9 3 5
1 12 -5 16 -5 3 -10 1 -10 -4 0 -6 -5 -11 -11 -11 -5 0 -8 4 -5 9 4 5 3 11 -1
14 -5 2 -3 3 4 1 20 -5 22 8 6 33 -16 24 -16 25 3 21 11 -2 18 -11 17 -22 -1
-17 0 -17 16 1 9 9 18 29 19 43 l1 25 -15 -25 c-14 -23 -15 -23 -11 -3 3 12
-1 27 -9 34 -11 9 -14 7 -14 -9 0 -12 -5 -24 -12 -28 -8 -5 -9 2 -5 24 6 29 4
32 -18 32 -14 0 -25 4 -25 10 0 5 8 7 18 4 16 -5 16 -5 -1 6 -9 6 -14 17 -11
23 4 7 3 8 -2 4 -5 -5 -10 -13 -10 -18 -1 -5 -2 -13 -3 -19 0 -5 -5 -10 -10
-10 -5 0 -7 9 -4 20 6 22 -15 25 -29 5 -5 -6 -8 -4 -8 5 -1 8 -3 30 -5 48 -2
30 -1 31 12 15 13 -17 14 -16 7 6 -5 19 -3 23 10 18 18 -7 21 14 6 48 -8 19
-9 19 -9 1 -1 -15 -4 -16 -16 -6 -9 7 -18 10 -22 6 -9 -9 2 -17 26 -19 11 -1
21 -5 21 -9 0 -11 -22 -10 -39 1 -9 6 -23 4 -38 -7 -21 -13 -22 -17 -9 -24 19
-10 12 -30 -7 -22 -8 3 -13 -6 -14 -23 -2 -25 -1 -26 8 -8 9 19 9 19 5 -2 -2
-13 4 -29 15 -39 10 -9 19 -21 19 -26 0 -16 38 -50 49 -44 5 4 13 1 17 -5 4
-7 3 -9 -4 -5 -5 3 -12 0 -15 -6 -5 -18 3 -48 14 -48 5 0 8 4 7 9 -2 5 0 9 5
10 8 1 9 -3 0 -24 -5 -14 -8 -14 -25 2 -11 10 -23 17 -27 16 -3 -1 -5 4 -3 12
1 7 -6 16 -18 20 -11 3 -19 9 -17 13 1 4 -8 18 -21 32 -13 14 -20 31 -16 42 3
10 0 18 -7 18 -8 0 -9 11 -5 33 4 21 3 27 -3 18 -13 -20 -38 -22 -45 -4 -4 9
-1 12 7 8 6 -4 -3 5 -20 20 -18 14 -33 33 -33 41 0 8 -5 14 -11 14 -5 0 -8 4
-5 9 3 5 -1 11 -9 15 -8 3 -15 10 -15 16 0 6 5 8 10 5 16 -10 11 1 -7 16 -15
12 -16 12 -8 -1 6 -11 5 -12 -4 -4 -7 6 -14 18 -15 25 -9 43 -28 70 -62 84
-104 43 -83 62 118 106 197 44 183 42 201 24z m-3956 -249 c1 -22 -2 -34 -8
-31 -5 4 -7 11 -4 16 4 5 0 12 -8 15 -9 3 -13 13 -10 25 9 32 28 16 30 -25z
m-152 12 c14 -14 12 -77 -3 -83 -12 -4 -12 -8 -1 -23 7 -9 -6 2 -29 26 -34 35
-40 46 -32 62 14 26 48 35 65 18z m4089 -102 c-3 -9 -12 -12 -22 -9 -15 6 -9
11 25 22 1 1 0 -5 -3 -13z m100 -148 c-3 -4 -9 -8 -15 -8 -5 0 -9 4 -9 8 0 5
7 9 15 9 8 0 12 -4 9 -9z m-4077 -12 c-3 -8 -1 -17 6 -19 9 -3 9 -8 -2 -20
-20 -25 -31 -11 -19 23 5 17 12 30 15 30 3 0 3 -6 0 -14z m4283 -81 c-28 -30
-49 -32 -47 -6 0 11 5 17 9 15 4 -3 16 0 25 5 31 18 37 12 13 -14z m-100 -128
c0 -16 -18 3 -23 25 -6 22 -5 22 8 4 8 -11 15 -24 15 -29z m1422 -32 c0 -5 -5
-11 -11 -13 -6 -2 -11 4 -11 13 0 9 5 15 11 13 6 -2 11 -8 11 -13z m-1034 -46
c3 -11 2 -11 -7 1 -7 10 -11 11 -11 3 0 -7 -9 -13 -20 -13 -11 0 -20 -4 -20
-8 0 -4 12 -8 27 -8 16 1 28 -4 28 -11 0 -6 3 -15 8 -19 4 -4 7 -12 7 -18 0
-5 -6 -1 -14 9 -8 11 -12 24 -9 30 4 6 2 6 -3 2 -5 -5 -10 -17 -10 -28 -1 -10
-2 -23 -3 -28 -1 -13 -44 -10 -53 4 -5 6 -11 5 -18 -5 -6 -9 -10 -10 -10 -3 0
6 5 15 10 18 6 4 8 12 4 18 -3 7 4 1 15 -13 19 -23 21 -24 21 -4 0 11 -5 25
-10 30 -15 15 -1 44 21 44 10 0 19 5 19 11 0 15 23 6 28 -12z m937 1 c7 0 15
-7 19 -15 4 -13 2 -14 -14 -5 -17 9 -20 8 -20 -9 0 -14 5 -19 20 -16 13 2 20
-2 20 -11 0 -8 -4 -13 -9 -10 -5 3 -8 -2 -7 -11 0 -10 -5 -18 -11 -18 -7 0
-13 -4 -12 -10 0 -5 6 -9 12 -8 7 1 21 -10 31 -24 14 -19 16 -25 5 -21 -8 3
-23 0 -34 -8 -20 -15 -70 -19 -61 -5 3 4 -6 7 -19 5 -25 -2 -35 19 -15 31 6 3
10 17 10 30 0 13 4 26 8 29 5 3 6 -8 4 -25 -2 -16 0 -29 6 -29 6 0 9 9 7 21
-3 16 -1 18 9 10 10 -8 17 -7 26 4 7 8 17 12 24 9 6 -3 3 1 -6 9 -13 10 -18
28 -17 58 0 24 3 38 6 32 2 -7 11 -13 18 -13z m-5418 -94 c-3 -17 -21 -34 -31
-29 -4 3 -2 9 5 14 10 7 9 8 -6 7 -11 -2 -21 2 -22 7 -2 6 3 10 10 10 6 1 11
6 9 13 -2 10 2 10 17 0 11 -7 19 -17 18 -22z m5473 20 c0 -11 -19 -15 -25 -6
-3 5 1 10 9 10 9 0 16 -2 16 -4z m-305 -64 c-3 -3 -11 0 -18 7 -9 10 -8 11 6
5 10 -3 15 -9 12 -12z m-335 -9 c0 -8 5 -11 10 -8 6 4 8 11 5 16 -4 5 -1 9 4
9 6 0 11 -9 11 -21 0 -11 4 -18 9 -15 5 4 7 -3 4 -13 -3 -13 -10 -18 -21 -13
-10 4 -12 7 -4 10 7 2 9 8 6 13 -4 6 -11 6 -19 -1 -13 -11 -17 -8 -28 21 -3 9
0 16 9 16 8 0 14 -7 14 -14z m71 -7 c1 -6 1 -14 0 -18 0 -4 6 -5 14 -2 8 4 15
1 15 -5 0 -6 -4 -11 -9 -11 -5 0 -17 -3 -26 -7 -14 -5 -16 -2 -10 16 4 13 2
28 -6 37 -10 12 -9 13 5 8 9 -3 17 -11 17 -18z m103 9 c-7 -16 -24 -21 -24 -6
0 8 7 13 27 20 1 1 0 -6 -3 -14z m-28 -32 c-10 -11 -37 -12 -30 -2 3 5 12 9
21 9 9 0 13 -3 9 -7z m-3371 -287 c205 7 225 6 242 -7 13 -11 15 -11 9 -1 -6
10 13 12 95 10 72 -2 104 -7 107 -16 2 -7 0 -12 -5 -11 -4 1 -12 0 -18 -1 -5
-2 -85 -4 -176 -4 -129 -1 -165 2 -162 12 7 16 -7 15 -30 -2 -20 -16 -78 -11
-89 7 -6 9 -8 9 -8 0 0 -7 -10 -10 -24 -7 -14 2 -27 0 -30 -5 -8 -13 -90 -5
-94 9 -3 9 -7 9 -13 -1 -6 -10 -9 -10 -9 -2 0 7 -7 10 -15 7 -8 -4 -13 -9 -10
-14 8 -13 -49 3 -64 17 -12 13 -4 14 57 11 40 -3 77 -1 83 3 6 4 23 4 38 0 14
-4 67 -6 116 -5z m2449 1 c84 -1 110 -5 114 -16 3 -10 0 -12 -11 -8 -9 3 -18
0 -21 -9 -4 -11 -10 -12 -30 -3 -18 9 -40 9 -76 2 -30 -6 -53 -7 -56 -1 -3 5
-11 5 -17 1 -7 -4 -39 -7 -72 -6 -97 4 -109 4 -135 2 -14 -1 -52 -1 -85 -1
-33 1 -69 1 -80 1 -11 -1 -36 0 -55 0 -19 1 -51 0 -70 -2 -19 -2 -44 -1 -55 3
-11 4 -32 3 -48 -2 -20 -8 -32 -6 -44 3 -14 12 -16 12 -8 -1 7 -12 6 -13 -6
-4 -9 8 -31 9 -63 4 -27 -4 -63 -4 -80 0 -17 3 -43 3 -58 -1 -15 -4 -30 -4
-33 0 -8 7 -65 8 -65 1 0 -7 -148 -5 -155 2 -4 3 -20 2 -36 -2 -17 -5 -29 -5
-29 1 0 5 -5 9 -11 9 -5 0 -7 -5 -4 -11 5 -7 -6 -8 -33 -4 -62 9 -167 9 -182
0 -9 -6 -11 -4 -5 6 7 11 6 12 -6 3 -8 -6 -23 -9 -34 -7 -11 2 -66 5 -123 5
-56 0 -105 4 -108 9 -3 5 -14 4 -25 -1 -24 -14 -50 -9 -66 10 -10 12 -12 12
-13 1 0 -8 -7 -11 -20 -8 -11 3 -18 1 -14 -4 3 -5 0 -9 -5 -9 -6 0 -11 5 -11
11 0 5 -4 7 -10 4 -5 -3 -17 -2 -26 3 -14 8 -13 10 7 15 13 3 350 6 748 6 398
1 725 2 727 3 2 3 253 0 488 -5z m569 -3 c59 -5 68 -24 11 -25 -121 0 -145 3
-134 16 12 14 58 24 74 16 5 -2 27 -5 49 -7z m-3840 -13 c10 -11 9 -12 -3 -5
-8 5 -27 9 -42 9 -15 0 -29 3 -33 6 -3 3 11 5 30 4 19 0 41 -7 48 -14z m25 -6
c-3 -3 -9 2 -12 12 -6 14 -5 15 5 6 7 -7 10 -15 7 -18z m202 16 c0 -3 -37 -7
-83 -8 -45 -1 -71 1 -58 5 31 9 141 11 141 3z m150 -2 c0 -5 -4 -7 -10 -4 -5
3 -10 1 -10 -5 0 -6 -5 -8 -11 -4 -8 4 -7 9 2 15 19 12 29 11 29 -2z m84 -4
c-3 -7 -19 -11 -37 -10 -43 4 -44 4 -28 14 22 14 70 10 65 -4z m2966 2 c0 8
29 11 99 10 74 -2 97 -5 94 -14 -3 -7 -17 -14 -32 -14 -14 -1 -37 -2 -51 -3
-14 -1 -31 6 -38 14 -8 8 -11 10 -8 4 3 -6 0 -11 -7 -12 -78 -7 -95 -3 -82 18
6 9 10 9 16 -1 6 -9 9 -10 9 -2z m279 -5 c-8 -12 -20 -17 -35 -14 -43 8 -25
24 34 31 9 1 10 -3 1 -17z m477 7 c3 -5 10 -6 16 -3 19 12 78 11 78 0 0 -14
-147 -16 -167 -3 -8 5 -13 4 -13 -3 0 -6 -4 -8 -10 -5 -5 3 -10 2 -10 -4 0 -7
-8 -7 -22 -2 -28 10 -89 8 -108 -4 -9 -5 -11 -4 -6 3 4 7 1 12 -9 12 -9 0 -14
4 -10 9 7 12 253 12 261 0z m164 0 c0 -4 -7 -10 -16 -13 -8 -3 -12 -2 -9 4 3
6 1 10 -4 10 -6 0 -11 -4 -11 -10 0 -5 -4 -10 -8 -10 -5 0 -9 7 -9 15 0 10 9
14 29 13 15 -1 28 -5 28 -9z m58 -1 c9 -9 12 -9 12 0 0 7 9 12 21 12 11 0 17
-5 14 -10 -4 -6 -10 -8 -15 -5 -4 3 -10 -1 -13 -7 -3 -10 -7 -10 -20 1 -11 8
-17 9 -17 3 0 -6 -7 -9 -15 -6 -8 4 -15 10 -15 15 0 13 34 11 48 -3z m106 6
c22 -8 20 -23 -1 -19 -10 2 -21 4 -25 4 -11 1 -10 21 1 21 5 0 16 -3 25 -6z
m156 -6 c0 -4 -16 -7 -35 -6 -20 1 -31 4 -26 8 15 9 61 8 61 -2z m155 1 c4 -6
4 -13 0 -17 -3 -3 -10 0 -14 7 -6 9 -11 10 -15 2 -4 -6 -13 -11 -19 -11 -7 0
-3 7 7 15 23 18 33 19 41 4z m50 1 c-3 -5 -12 -10 -18 -10 -7 0 -6 4 3 10 19
12 23 12 15 0z m63 -6 c-9 -9 -24 -14 -32 -11 -27 11 -17 27 16 27 30 0 31 -1
16 -16z m156 3 c-2 -7 -17 -12 -32 -11 -34 2 -34 2 -27 14 10 15 65 13 59 -3z
m159 0 c4 3 7 1 7 -5 0 -6 -9 -10 -20 -9 -11 1 -20 8 -20 15 0 11 3 12 13 3 8
-6 17 -8 20 -4z m-5386 -3 c-3 -3 -12 -4 -19 -1 -8 3 -5 6 6 6 11 1 17 -2 13
-5z m456 -1 c-7 -2 -21 -2 -30 0 -10 3 -4 5 12 5 17 0 24 -2 18 -5z m4887 3
c0 -2 -7 -6 -15 -10 -8 -3 -15 -1 -15 4 0 6 7 10 15 10 8 0 15 -2 15 -4z
m-5428 -757 c80 1 86 -5 83 -96 -1 -34 2 -60 6 -57 4 2 10 -3 13 -12 4 -11 13
-14 31 -10 18 5 27 1 34 -13 6 -10 8 -21 5 -23 -3 -3 6 -8 20 -10 14 -3 23 -2
21 3 -3 4 4 5 16 2 16 -4 17 -8 7 -14 -7 -5 -11 -9 -8 -10 3 0 14 -2 24 -4 26
-5 54 -34 41 -43 -17 -12 -16 -32 2 -25 12 5 14 3 7 -8 -4 -8 -9 -18 -10 -24
0 -5 -2 -19 -3 -30 -2 -11 -5 -15 -8 -7 -2 6 -11 12 -19 12 -28 0 -61 25 -122
93 -18 20 -68 57 -77 57 -6 0 -16 9 -23 20 -7 11 -17 20 -24 20 -6 0 -18 7
-27 15 -9 8 -44 41 -78 73 -80 74 -85 111 -13 97 19 -4 65 -7 102 -6z m278
-29 c0 -5 -2 -10 -4 -10 -3 0 -8 5 -11 10 -3 6 -1 10 4 10 6 0 11 -4 11 -10z
m-94 -15 c9 -8 13 -19 9 -24 -3 -5 -1 -12 5 -16 6 -4 8 -10 5 -15 -3 -4 2 -10
10 -14 8 -3 15 -17 15 -32 0 -20 -4 -25 -16 -20 -15 6 -15 4 -3 -11 7 -10 9
-15 5 -11 -5 4 -16 2 -24 -4 -12 -10 -13 -8 -10 12 1 14 6 27 10 30 9 7 -12
91 -21 86 -4 -3 -7 4 -7 15 0 23 3 23 22 4z m354 -85 c0 -4 -11 -7 -25 -7 -20
0 -23 2 -14 13 10 13 39 9 39 -6z m0 -26 c0 -2 -7 -4 -15 -4 -8 0 -15 4 -15
10 0 5 7 7 15 4 8 -4 15 -8 15 -10z m-75 -4 c3 -5 1 -10 -4 -10 -6 0 -11 5
-11 10 0 6 2 10 4 10 3 0 8 -4 11 -10z m-159 -26 c-3 -15 -8 -29 -12 -33 -4
-3 -5 6 -2 21 3 15 0 29 -6 32 -6 2 -3 5 7 5 13 1 16 -5 13 -25z m34 -204 c12
-12 26 -18 32 -14 7 4 8 3 4 -4 -7 -11 6 -17 27 -13 5 1 5 -4 1 -10 -4 -8 3
-9 25 -4 35 8 61 -11 61 -44 0 -12 6 -21 15 -21 9 0 18 -7 22 -16 3 -8 17 -20
31 -25 18 -7 22 -13 14 -21 -11 -11 -72 9 -72 24 0 4 -15 14 -32 23 -37 17
-110 80 -102 88 3 2 -7 7 -21 11 -14 4 -25 11 -25 17 0 6 -4 7 -10 4 -5 -3
-10 1 -10 9 0 22 16 20 40 -4z m322 -202 c32 -22 32 -43 2 -44 -24 -1 -43 9
-72 36 -47 44 11 51 70 8z m71 -59 c4 -15 2 -17 -13 -9 -9 5 -20 6 -24 3 -3
-3 -6 -1 -6 5 0 7 5 12 11 12 5 0 7 4 4 10 -3 5 0 7 8 4 8 -3 17 -14 20 -25z"/>
<path d="M2015 7110 c3 -5 8 -10 11 -10 2 0 4 5 4 10 0 6 -5 10 -11 10 -5 0
-7 -4 -4 -10z"/>
<path d="M1810 6890 c0 -5 5 -10 11 -10 5 0 7 5 4 10 -3 6 -8 10 -11 10 -2 0
-4 -4 -4 -10z"/>
<path d="M1604 6618 c-4 -6 -3 -8 4 -4 5 3 12 1 14 -6 3 -8 6 -9 11 -1 4 6 0
13 -8 17 -8 3 -17 0 -21 -6z"/>
<path d="M1051 5484 c0 -11 3 -14 6 -6 3 7 2 16 -1 19 -3 4 -6 -2 -5 -13z"/>
<path d="M926 5352 c-2 -4 -1 -14 4 -22 7 -11 9 -9 7 8 -1 24 -3 26 -11 14z"/>
<path d="M910 5321 c0 -6 4 -13 10 -16 6 -3 7 1 4 9 -7 18 -14 21 -14 7z"/>
<path d="M900 4630 c-8 -26 -7 -41 2 -32 6 6 8 16 5 24 -3 7 -6 11 -7 8z"/>
<path d="M754 4405 c-8 -7 -6 -15 4 -25 14 -13 15 -12 9 3 -4 11 -1 17 8 17 8
0 15 4 15 8 0 12 -24 11 -36 -3z"/>
<path d="M736 4363 c-6 -14 -5 -15 5 -6 7 7 10 15 7 18 -3 3 -9 -2 -12 -12z"/>
<path d="M855 4070 c4 -6 11 -8 16 -5 14 9 11 15 -7 15 -8 0 -12 -5 -9 -10z"/>
<path d="M1115 2710 c3 -5 11 -10 16 -10 6 0 7 5 4 10 -3 6 -11 10 -16 10 -6
0 -7 -4 -4 -10z"/>
<path d="M3780 6315 c5 -21 -1 -36 -10 -30 -6 4 -8 11 -5 16 3 5 -1 6 -9 3 -9
-3 -13 -10 -10 -15 3 -5 1 -9 -4 -9 -5 0 -12 -9 -15 -19 -3 -15 2 -21 22 -26
14 -4 29 -12 33 -18 4 -7 8 1 8 17 0 16 3 26 7 23 9 -9 34 13 27 24 -6 10 9
12 19 2 4 -3 -1 -11 -10 -18 -14 -11 -14 -12 3 -19 10 -4 15 -4 11 0 -4 4 -2
13 3 19 11 13 -15 43 -27 31 -3 -3 -15 2 -25 11 -11 10 -19 13 -18 8z"/>
<path d="M4009 6313 c-1 -4 -1 -12 0 -17 1 -5 -5 -4 -13 3 -8 7 -21 11 -28 8
-8 -3 -6 -6 5 -6 13 -1 17 -8 14 -26 -1 -13 -6 -27 -10 -31 -14 -14 -7 -26 8
-14 8 7 15 21 15 31 0 14 7 19 25 19 15 0 25 -6 25 -14 0 -8 9 -24 19 -37 l19
-24 12 27 c13 28 8 58 -9 58 -5 0 -13 -9 -16 -21 -6 -19 -8 -18 -24 12 -17 32
-40 49 -42 32z"/>
<path d="M3941 6264 c11 -14 -3 -19 -49 -17 -9 1 -11 -5 -6 -15 8 -18 8 -72 0
-79 -4 -4 -25 -9 -47 -12 -9 -1 -7 -31 3 -31 4 0 8 6 8 14 0 9 8 12 25 8 14
-2 25 -8 25 -13 0 -5 7 -9 16 -9 12 0 15 7 12 25 -3 14 -1 25 6 25 6 0 4 5 -4
10 -13 8 -12 10 3 10 9 0 17 7 17 16 0 8 4 12 10 9 6 -3 7 1 4 10 -4 8 -1 21
4 28 13 16 3 32 -21 33 -14 2 -15 -1 -6 -12z m-11 -28 c0 -3 -4 -8 -10 -11 -5
-3 -10 -1 -10 4 0 6 5 11 10 11 6 0 10 -2 10 -4z"/>
<path d="M3805 6239 c-4 -6 -4 -13 -1 -16 3 -4 6 -1 6 7 0 10 4 10 18 -1 15
-13 16 -12 3 4 -16 20 -18 20 -26 6z"/>
<path d="M4320 6230 c-9 -6 -10 -10 -3 -10 6 0 15 5 18 10 8 12 4 12 -15 0z"/>
<path d="M4043 6203 c-3 -10 -8 -22 -11 -28 -3 -5 4 -1 16 9 24 20 28 36 12
36 -6 0 -13 -8 -17 -17z"/>
<path d="M3790 6181 c0 -6 4 -13 10 -16 6 -3 7 1 4 9 -7 18 -14 21 -14 7z"/>
<path d="M3740 6162 c0 -7 -6 -12 -14 -12 -7 0 -18 -6 -24 -13 -8 -10 -6 -13
8 -13 11 0 17 2 15 5 -3 2 3 10 13 17 9 7 14 16 9 20 -4 4 -7 2 -7 -4z"/>
<path d="M4253 6155 c0 -8 4 -12 9 -9 5 3 6 10 3 15 -9 13 -12 11 -12 -6z"/>
<path d="M3758 6144 c-10 -9 10 -44 25 -44 8 0 8 3 -1 9 -8 4 -13 11 -12 15 3
13 -6 27 -12 20z"/>
<path d="M3808 6103 c6 -2 10 -8 8 -12 -3 -4 4 -7 14 -8 11 -1 23 3 26 9 5 7
1 9 -9 5 -9 -3 -19 -2 -22 3 -4 6 -12 10 -18 9 -9 0 -8 -2 1 -6z"/>
<path d="M2490 6004 c0 -9 -8 -18 -18 -21 -10 -2 -19 -14 -19 -26 -1 -12 1
-17 5 -11 4 6 14 13 22 16 14 5 27 58 15 58 -3 0 -5 -7 -5 -16z"/>
<path d="M4160 6002 c0 -15 4 -20 16 -15 9 3 12 9 7 12 -4 3 -11 10 -15 15 -5
5 -8 0 -8 -12z"/>
<path d="M2020 5991 c0 -5 5 -13 10 -16 6 -3 10 -2 10 4 0 5 -4 13 -10 16 -5
3 -10 2 -10 -4z"/>
<path d="M2156 5922 c-3 -6 0 -13 6 -15 10 -4 10 -6 1 -6 -7 -1 -13 -9 -13
-18 0 -15 -2 -16 -10 -3 -11 17 -13 10 -4 -14 3 -8 12 -12 19 -10 7 3 16 0 21
-7 4 -7 3 -10 -2 -6 -11 6 -11 -59 -1 -70 4 -3 7 -1 7 5 0 7 9 12 19 12 11 0
22 4 25 9 4 5 -7 7 -23 5 -26 -4 -29 -2 -24 15 3 12 9 19 12 16 4 -2 8 2 8 10
0 8 -4 12 -9 9 -4 -3 -8 -1 -8 5 0 5 5 13 10 16 6 3 10 12 10 18 0 7 -4 6 -10
-3 -5 -8 -10 -13 -11 -10 -9 49 -13 57 -23 42z"/>
<path d="M3783 5915 c0 -8 4 -15 8 -15 4 0 9 7 13 15 3 9 0 15 -8 15 -7 0 -13
-7 -13 -15z"/>
<path d="M2336 5868 c3 -4 9 -8 15 -8 5 0 9 4 9 8 0 5 -7 9 -15 9 -8 0 -12 -4
-9 -9z"/>
<path d="M2575 5860 c-4 -6 -11 -7 -17 -4 -7 4 -8 2 -4 -4 10 -16 23 -15 30 3
6 17 0 20 -9 5z"/>
<path d="M2314 5848 c-3 -5 -12 -7 -20 -4 -7 3 -16 1 -20 -5 -3 -5 -15 -7 -27
-4 -15 4 -18 3 -9 -3 7 -5 11 -15 9 -23 -2 -8 -2 -11 0 -7 10 17 33 -5 27 -27
-3 -13 0 -26 7 -30 7 -5 10 -4 5 3 -4 6 3 12 16 14 14 2 22 9 20 19 -1 9 5 16
13 16 8 0 15 -4 15 -9 0 -15 37 -8 52 10 22 24 29 62 13 62 -7 0 -16 -6 -18
-12 -4 -10 -6 -10 -6 0 -1 6 -5 12 -11 12 -5 0 -9 -3 -9 -7 3 -20 -2 -30 -16
-30 -18 0 -20 14 -3 19 7 3 2 7 -10 10 -12 4 -25 2 -28 -4z m76 -42 c0 -3 -4
-8 -10 -11 -5 -3 -10 -1 -10 4 0 6 5 11 10 11 6 0 10 -2 10 -4z m-75 -34 c-3
-3 -11 0 -18 7 -9 10 -8 11 6 5 10 -3 15 -9 12 -12z"/>
<path d="M2518 5853 c-27 -7 -21 -18 10 -19 15 -1 21 1 14 3 -6 3 -10 9 -6 14
3 5 4 8 2 8 -2 -1 -11 -3 -20 -6z"/>
<path d="M2029 5834 c-10 -12 -14 -12 -21 -2 -12 16 -7 2 12 -36 13 -25 12
-29 -4 -42 -18 -12 -17 -13 2 -11 11 0 20 4 20 7 -2 24 4 29 25 21 12 -5 21
-14 19 -21 -1 -6 2 -9 8 -5 7 4 8 11 1 18 -13 16 21 57 48 57 12 0 21 4 21 8
0 5 -17 8 -37 7 -21 -1 -42 1 -48 4 -19 11 -34 9 -46 -5z m21 -12 c0 -5 -7 -9
-15 -9 -8 0 -12 4 -9 9 3 4 9 8 15 8 5 0 9 -4 9 -8z m50 -11 c-16 -31 -32 -36
-18 -7 6 14 15 26 20 26 5 0 4 -9 -2 -19z"/>
<path d="M2585 5841 c-13 -12 -3 -23 16 -18 17 4 19 3 10 -6 -6 -6 -11 -22
-11 -36 1 -25 1 -25 12 -6 20 34 18 71 -4 71 -10 0 -21 -2 -23 -5z"/>
<path d="M1963 5806 c0 -8 5 -14 11 -13 6 1 11 -5 10 -14 -1 -9 5 -16 12 -16
9 0 10 5 3 19 -5 10 -6 18 -2 18 9 0 -19 20 -28 20 -3 0 -6 -6 -6 -14z"/>
<path d="M4067 5803 c-3 -4 0 -19 7 -32 7 -13 15 -20 18 -15 6 12 -18 58 -25
47z"/>
<path d="M2114 5775 c1 -8 6 -18 11 -22 4 -4 5 -2 1 5 -4 6 -2 12 3 12 6 0 11
-6 11 -12 0 -9 3 -8 10 2 7 11 5 17 -8 22 -26 10 -30 9 -28 -7z"/>
<path d="M2245 5771 c3 -5 1 -12 -5 -16 -5 -3 -10 -11 -10 -16 0 -6 5 -7 10
-4 11 7 57 -43 53 -56 -1 -4 6 -5 16 -2 21 5 18 38 -5 47 -12 5 -12 2 -3 -17
11 -20 11 -21 -4 -9 -9 8 -22 29 -29 48 -6 19 -16 34 -21 34 -4 0 -6 -4 -2 -9z"/>
<path d="M1735 5750 c3 -5 8 -10 11 -10 2 0 4 5 4 10 0 6 -5 10 -11 10 -5 0
-7 -4 -4 -10z"/>
<path d="M1430 5739 c0 -5 5 -7 10 -4 6 3 10 8 10 11 0 2 -4 4 -10 4 -5 0 -10
-5 -10 -11z"/>
<path d="M1415 5710 c-3 -5 -2 -10 4 -10 5 0 13 5 16 10 3 6 2 10 -4 10 -5 0
-13 -4 -16 -10z"/>
<path d="M1581 5683 c-1 -7 -8 -13 -16 -13 -8 0 -15 -7 -15 -15 0 -18 16 -20
23 -2 3 6 5 3 4 -8 -1 -13 -8 -21 -19 -21 -17 0 -23 9 -18 31 1 6 -4 4 -11 -3
-11 -10 -9 -16 9 -34 20 -20 23 -20 39 -6 10 9 30 15 44 13 18 -2 26 1 25 10
-3 22 -28 46 -42 41 -7 -3 -15 0 -18 7 -3 9 -5 9 -5 0z m49 -39 c0 -8 -4 -14
-9 -14 -6 0 -9 9 -8 19 1 22 17 18 17 -5z"/>
<path d="M1996 5665 c-11 -8 -15 -15 -9 -15 6 0 16 7 23 15 16 19 11 19 -14 0z"/>
<path d="M5395 3240 c-3 -5 -1 -10 4 -10 6 0 11 5 11 10 0 6 -2 10 -4 10 -3 0
-8 -4 -11 -10z"/>
<path d="M6980 3239 c0 -5 5 -7 10 -4 6 3 10 8 10 11 0 2 -4 4 -10 4 -5 0 -10
-5 -10 -11z"/>
<path d="M6771 3147 c-6 -8 -8 -17 -5 -20 4 -4 -2 -5 -14 -2 -15 2 -21 -3 -24
-20 -5 -25 16 -42 28 -23 4 7 3 8 -4 4 -7 -4 -12 -1 -12 9 0 9 4 14 9 10 5 -3
15 1 23 8 7 8 19 12 26 9 6 -2 12 1 12 7 0 6 -6 10 -12 9 -7 -2 -12 3 -10 10
3 16 -3 15 -17 -1z"/>
<path d="M6780 3101 c0 -6 5 -13 10 -16 6 -3 10 -11 10 -16 0 -6 -4 -8 -9 -5
-5 3 -12 -1 -15 -9 -4 -13 -2 -13 14 -5 28 15 33 28 16 45 -17 17 -26 19 -26
6z"/>
<path d="M6857 3086 c4 -12 3 -17 -4 -13 -6 4 -13 1 -16 -6 -3 -8 1 -14 9 -14
8 0 14 5 14 11 0 6 5 4 10 -4 5 -8 10 -10 10 -4 0 5 -7 19 -15 30 -15 18 -15
18 -8 0z"/>
<path d="M6891 3064 c0 -11 3 -14 6 -6 3 7 2 16 -1 19 -3 4 -6 -2 -5 -13z"/>
<path d="M6303 3038 c12 -10 14 -17 6 -28 -9 -13 -10 -12 -5 3 3 9 1 17 -4 17
-12 0 -13 -20 -1 -39 8 -12 12 -10 22 12 9 21 15 24 26 16 8 -7 13 -8 13 -1 0
11 -23 23 -55 29 -18 3 -18 3 -2 -9z"/>
<path d="M6390 2872 c0 -5 7 -9 15 -9 8 0 12 4 9 9 -3 4 -9 8 -15 8 -5 0 -9
-4 -9 -8z"/>
<path d="M6435 2870 c-3 -5 -2 -10 4 -10 5 0 13 5 16 10 3 6 2 10 -4 10 -5 0
-13 -4 -16 -10z"/>
<path d="M2443 6236 c3 -7 0 -20 -6 -27 -10 -11 -9 -11 5 0 15 11 15 41 1 41
-3 0 -3 -6 0 -14z"/>
<path d="M1775 5990 c3 -5 8 -10 11 -10 2 0 4 5 4 10 0 6 -5 10 -11 10 -5 0
-7 -4 -4 -10z"/>
<path d="M4933 3635 c0 -8 4 -12 9 -9 5 3 6 10 3 15 -9 13 -12 11 -12 -6z"/>
<path d="M5045 3540 c-3 -5 -1 -10 4 -10 6 0 11 5 11 10 0 6 -2 10 -4 10 -3 0
-8 -4 -11 -10z"/>
<path d="M5126 3471 c-3 -5 1 -11 9 -15 8 -3 15 -1 15 4 0 13 -18 22 -24 11z"/>
<path d="M5100 3440 c-9 -6 -10 -10 -3 -10 6 0 15 5 18 10 8 12 4 12 -15 0z"/>
<path d="M5270 3328 c-2 -5 -3 -13 -4 -19 0 -5 -11 -21 -24 -34 -20 -21 -21
-25 -6 -33 29 -16 61 7 62 45 1 19 -3 31 -7 28 -5 -3 -12 1 -14 7 -3 7 -6 10
-7 6z m8 -60 c-3 -7 -12 -14 -22 -14 -13 -2 -13 -1 -1 3 8 2 13 9 10 14 -4 5
-1 9 5 9 7 0 10 -6 8 -12z"/>
<path d="M5350 3323 c5 -2 8 -9 4 -14 -3 -5 0 -9 6 -9 15 0 7 23 -8 26 -7 1
-8 0 -2 -3z"/>
<path d="M5315 3300 c3 -5 8 -10 11 -10 2 0 4 5 4 10 0 6 -5 10 -11 10 -5 0
-7 -4 -4 -10z"/>
<path d="M5621 2974 c0 -11 3 -14 6 -6 3 7 2 16 -1 19 -3 4 -6 -2 -5 -13z"/>
<path d="M6568 2928 c-2 -6 -13 -12 -24 -12 -17 -2 -24 -7 -24 -21 0 -3 8 -1
18 4 11 6 24 6 37 -1 16 -9 18 -8 8 2 -6 7 -9 19 -6 26 3 8 3 14 0 14 -3 0 -7
-5 -9 -12z"/>
<path d="M3480 2569 c0 -5 5 -7 10 -4 6 3 10 8 10 11 0 2 -4 4 -10 4 -5 0 -10
-5 -10 -11z"/>
<path d="M1895 1630 c3 -5 8 -10 11 -10 2 0 4 5 4 10 0 6 -5 10 -11 10 -5 0
-7 -4 -4 -10z"/>
</g>
</svg>
